<?xml version="1.0" encoding="UTF-8" standalone="no"?>
<!-- Created with Inkscape (http://www.inkscape.org/) -->

<svg
   width="2048"
   height="512"
   viewBox="0 0 541.86665 135.46667"
   version="1.1"
   id="svg5"
   xml:space="preserve"
   inkscape:version="1.2.1 (9c6d41e410, 2022-07-14)"
   sodipodi:docname="logo.inkscape.svg"
   inkscape:export-filename="logo.png"
   inkscape:export-xdpi="96"
   inkscape:export-ydpi="96"
   xmlns:inkscape="http://www.inkscape.org/namespaces/inkscape"
   xmlns:sodipodi="http://sodipodi.sourceforge.net/DTD/sodipodi-0.dtd"
   xmlns:xlink="http://www.w3.org/1999/xlink"
   xmlns="http://www.w3.org/2000/svg"
   xmlns:svg="http://www.w3.org/2000/svg"><sodipodi:namedview
     id="namedview7"
     pagecolor="#505050"
     bordercolor="#eeeeee"
     borderopacity="1"
     inkscape:showpageshadow="0"
     inkscape:pageopacity="0"
     inkscape:pagecheckerboard="0"
     inkscape:deskcolor="#505050"
     inkscape:document-units="mm"
     showgrid="false"
     inkscape:zoom="0.55722854"
     inkscape:cx="1365.6874"
     inkscape:cy="126.519"
     inkscape:window-width="3840"
     inkscape:window-height="2054"
     inkscape:window-x="-11"
     inkscape:window-y="-11"
     inkscape:window-maximized="1"
     inkscape:current-layer="layer2" /><defs
     id="defs2"><linearGradient
       id="primary"
       inkscape:swatch="solid"><stop
         style="stop-color:#000000;stop-opacity:1;"
         offset="0"
         id="stop1472" /></linearGradient><inkscape:path-effect
       effect="bspline"
       id="path-effect816"
       is_visible="true"
       lpeversion="1"
       weight="33.333333"
       steps="2"
       helper_size="0"
       apply_no_weight="true"
       apply_with_weight="true"
       only_selected="false" /><inkscape:path-effect
       effect="bspline"
       id="path-effect618"
       is_visible="true"
       lpeversion="1"
       weight="33.333333"
       steps="2"
       helper_size="0"
       apply_no_weight="true"
       apply_with_weight="true"
       only_selected="false" /><inkscape:path-effect
       effect="bspline"
       id="path-effect816-9"
       is_visible="true"
       lpeversion="1"
       weight="33.333333"
       steps="2"
       helper_size="0"
       apply_no_weight="true"
       apply_with_weight="true"
       only_selected="false" /><inkscape:path-effect
       effect="bspline"
       id="path-effect816-0"
       is_visible="true"
       lpeversion="1"
       weight="33.333333"
       steps="2"
       helper_size="0"
       apply_no_weight="true"
       apply_with_weight="true"
       only_selected="false" /><inkscape:path-effect
       effect="bspline"
       id="path-effect618-6"
       is_visible="true"
       lpeversion="1"
       weight="33.333333"
       steps="2"
       helper_size="0"
       apply_no_weight="true"
       apply_with_weight="true"
       only_selected="false" /><inkscape:path-effect
       effect="bspline"
       id="path-effect618-65"
       is_visible="true"
       lpeversion="1"
       weight="33.333333"
       steps="2"
       helper_size="0"
       apply_no_weight="true"
       apply_with_weight="true"
       only_selected="false" /><linearGradient
       inkscape:collect="always"
       xlink:href="#primary"
       id="linearGradient894"
       x1="136.72591"
       y1="54.920494"
       x2="813.65375"
       y2="54.920494"
       gradientUnits="userSpaceOnUse" /><linearGradient
       inkscape:collect="always"
       xlink:href="#primary"
       id="linearGradient366"
       gradientUnits="userSpaceOnUse"
       gradientTransform="translate(1.2182617e-5)"
       x1="136.72591"
       y1="54.920494"
       x2="813.65375"
       y2="54.920494" /></defs><g
     inkscape:label="logo"
     inkscape:groupmode="layer"
     id="layer1"
     transform="matrix(0.7796495,0,0,0.7796495,-99.548173,24.914598)"
     style="fill-opacity:1.0;fill:url(#linearGradient894)"><g
       inkscape:groupmode="layer"
       id="layer2"
       inkscape:label="text"
       transform="matrix(1.2826277,0,0,1.2826277,127.68324,-31.956152)"><text
         xml:space="preserve"
         style="fill-opacity:1;fill:url(#linearGradient366);font-size:101.812px;stroke-width:0.0697732;display:none"
         x="130.46208"
         y="99.123543"
         id="text324-6"
         inkscape:label="text"
         transform="matrix(0.77964947,0,0,0.77964947,-99.548169,24.914597)"><tspan
           sodipodi:role="line"
           id="tspan322-4"
           style="font-style:normal;font-variant:normal;font-weight:normal;font-stretch:normal;font-size:101.812px;font-family:'Malgun Gothic';-inkscape-font-specification:'Malgun Gothic';fill:url(#linearGradient366);fill-opacity:1;stroke-width:0.0697732"
           x="130.46208"
           y="99.123543">SmartTurner</tspan></text><g
         aria-label="SmartTurner"
         id="text324"
         style="fill-opacity:1;fill:url(#linearGradient894);font-size:101.812px;stroke-width:0.0697732"
         inkscape:label="path"
         transform="matrix(0.77964947,0,0,0.77964947,-99.548169,24.914597)"><path
           d="m 136.72591,86.446756 q 3.38047,2.933061 9.04774,4.722725 5.71698,1.789664 10.53913,1.789664 15.95784,0 15.95784,-11.583104 0,-3.330763 -1.69024,-5.86612 -1.64052,-2.535358 -4.32502,-4.325022 -2.68449,-1.789664 -11.1854,-6.164398 -10.24085,-5.269566 -14.2676,-9.694013 -3.97703,-4.47416 -3.97703,-11.1854 0,-8.94832 7.25808,-14.168174 7.3078,-5.219853 17.99607,-5.219853 10.83741,0 15.51042,2.58507 v 9.29631 q -6.36325,-4.424447 -16.55439,-4.424447 -6.95981,0 -11.38425,2.982774 -4.37474,2.982773 -4.37474,8.252339 0,4.772438 3.0822,7.804924 3.13191,2.982773 12.92535,7.75521 11.43397,5.716983 15.411,10.787697 3.97703,5.070715 3.97703,10.986549 0,9.495162 -6.86038,14.565876 -6.86038,5.021007 -18.99032,5.021007 -3.82789,0 -9.6443,-1.242827 -5.7667,-1.19311 -8.45119,-2.982774 z"
           style="font-family:'Malgun Gothic';-inkscape-font-specification:'Malgun Gothic'"
           id="path368" /><path
           d="m 267.91822,99.123543 h -7.90435 V 69.146671 q 0,-9.196885 -2.78392,-12.975064 -2.73421,-3.827893 -9.09746,-3.827893 -5.36899,0 -9.2466,5.070715 -3.82789,5.021002 -3.82789,11.88138 v 29.827734 h -7.85464 V 68.052987 q 0,-15.709273 -12.12994,-15.709273 -5.51813,0 -9.19689,4.772438 -3.67875,4.722724 -3.67875,12.179657 v 29.827734 h -7.90435 V 46.875297 h 7.90435 v 8.302052 h 0.19885 q 5.46842,-9.495162 16.15669,-9.495162 5.07071,0 9.09746,2.933061 4.07646,2.883347 5.66727,7.954062 5.81641,-10.887123 17.3498,-10.887123 17.25037,0 17.25037,21.277117 z"
           style="font-family:'Malgun Gothic';-inkscape-font-specification:'Malgun Gothic'"
           id="path370" /><path
           d="m 285.11888,50.603763 q 7.65578,-4.921576 17.59836,-4.921576 18.19492,0 18.19492,19.288601 v 34.152755 h -7.90435 v -8.202627 h -0.29828 q -5.4187,9.445454 -16.05726,9.445454 -7.65579,0 -12.17966,-4.076462 -4.47416,-4.12617 -4.47416,-10.986548 0,-14.565877 17.20066,-16.952095 l 15.75899,-2.286793 q 0,-13.621332 -10.83741,-13.621332 -9.54488,0 -17.00181,6.512389 z m 15.063,23.713048 q -6.11468,0.795406 -9.04774,2.982774 -2.93306,2.187367 -2.93306,7.456933 0,3.977031 2.78392,6.412963 2.83363,2.435931 7.40722,2.435931 6.31354,0 10.43971,-4.47416 4.12617,-4.47416 4.12617,-11.235113 v -5.269566 z"
           style="font-family:'Malgun Gothic';-inkscape-font-specification:'Malgun Gothic'"
           id="path372" /><path
           d="m 363.66525,54.978497 q -2.23708,-1.690238 -6.31354,-1.690238 -5.36899,0 -8.99803,5.219854 -3.62905,5.219853 -3.62905,13.869896 v 26.745534 h -7.90434 V 46.875297 h 7.90434 v 10.837409 h 0.19886 q 1.78966,-5.51813 5.4187,-8.600329 3.67876,-3.131912 8.20263,-3.131912 3.28105,0 5.12043,0.69598 z"
           style="font-family:'Malgun Gothic';-inkscape-font-specification:'Malgun Gothic'"
           id="path374" /><path
           d="m 399.7568,98.626414 q -2.98278,1.640526 -7.60607,1.640526 -13.4722,0 -13.4722,-15.162432 V 53.685962 h -9.04774 v -6.810665 h 9.04774 V 34.049371 l 7.85464,-2.535357 v 15.361283 h 13.22363 v 6.810665 h -13.22363 v 29.976872 q 0,5.518131 1.83938,7.705498 1.83937,2.187367 5.96554,2.187367 3.13192,0 5.41871,-1.739951 z"
           style="font-family:'Malgun Gothic';-inkscape-font-specification:'Malgun Gothic'"
           id="path376" /><path
           d="m 454.93811,33.353391 h -21.12798 v 65.770152 h -8.1032 V 33.353391 H 404.67838 V 25.94617 h 50.25973 z"
           style="font-family:'Malgun Gothic';-inkscape-font-specification:'Malgun Gothic'"
           id="path378" /><path
           d="m 497.6912,99.123543 h -7.90435 v -8.25234 H 489.588 q -5.17014,9.495167 -16.10697,9.495167 -18.69205,0 -18.69205,-22.271379 V 46.875297 h 7.80492 v 29.927159 q 0,16.852669 12.82593,16.852669 6.26382,0 10.29057,-4.623299 4.07645,-4.673011 4.07645,-12.080232 V 46.875297 h 7.90435 z"
           style="font-family:'Malgun Gothic';-inkscape-font-specification:'Malgun Gothic'"
           id="path380" /><path
           d="m 541.58767,54.978497 q -2.23708,-1.690238 -6.31354,-1.690238 -5.36899,0 -8.99803,5.219854 -3.62904,5.219853 -3.62904,13.869896 v 26.745534 h -7.90435 V 46.875297 h 7.90435 v 10.837409 h 0.19885 q 1.78966,-5.51813 5.41871,-8.600329 3.67875,-3.131912 8.20262,-3.131912 3.28105,0 5.12043,0.69598 z"
           style="font-family:'Malgun Gothic';-inkscape-font-specification:'Malgun Gothic'"
           id="path382" /><path
           d="m 593.48792,99.123543 h -7.90435 V 69.295809 q 0,-16.952095 -12.37851,-16.952095 -6.36325,0 -10.58884,4.822151 -4.17589,4.772437 -4.17589,12.179657 v 29.778021 h -7.90435 V 46.875297 h 7.90435 v 8.749468 h 0.19885 q 5.86613,-9.942578 17.15095,-9.942578 8.60033,0 13.1242,5.518131 4.57359,5.518131 4.57359,16.00755 z"
           style="font-family:'Malgun Gothic';-inkscape-font-specification:'Malgun Gothic'"
           id="path384" /><path
           d="m 651.05546,74.963079 h -37.0361 q 0.24856,9.047746 4.82215,13.869896 4.6233,4.772437 12.37851,4.772437 8.94832,0 16.30583,-5.915834 v 7.556359 q -7.00952,5.120433 -18.14521,5.120433 -11.03626,0 -17.30008,-7.208374 -6.21411,-7.258082 -6.21411,-20.034294 0,-11.881381 6.86037,-19.636591 6.86038,-7.804924 17.00181,-7.804924 10.14143,0 15.70928,6.661527 5.61755,6.611815 5.61755,18.344056 z m -8.15291,-6.959805 q 0,-7.307794 -3.52962,-11.433964 -3.4799,-4.12617 -9.74372,-4.12617 -5.91584,0 -10.19115,4.275309 -4.2753,4.225595 -5.31927,11.284825 z"
           style="font-family:'Malgun Gothic';-inkscape-font-specification:'Malgun Gothic'"
           id="path386" /><path
           d="m 690.72631,54.978497 q -2.23708,-1.690238 -6.31354,-1.690238 -5.36899,0 -8.99803,5.219854 -3.62904,5.219853 -3.62904,13.869896 v 26.745534 h -7.90435 V 46.875297 h 7.90435 v 10.837409 h 0.19885 q 1.78967,-5.51813 5.41871,-8.600329 3.67875,-3.131912 8.20262,-3.131912 3.28105,0 5.12043,0.69598 z"
           style="font-family:'Malgun Gothic';-inkscape-font-specification:'Malgun Gothic'"
           id="path388" /></g></g><g
       inkscape:label="icon"
       inkscape:groupmode="layer"
       id="layer1-7"
       transform="matrix(1.4297292,0.04962272,-0.04962272,1.4297292,644.47676,-209.34438)"
       style="fill:url(#linearGradient894);fill-opacity:1.0"><rect
         style="fill:url(#linearGradient894);fill-opacity:1.0;stroke-width:0.16241"
         id="rect502"
         width="5.2369199"
         height="112.4857"
         x="144.92897"
         y="82.872032"
         rx="0.19061668"
         ry="0.55350649"
         transform="matrix(0.9422077,0.33502934,-0.31370385,0.94952088,0,0)"
         inkscape:label="stem" /><path
         style="fill:url(#linearGradient894);fill-opacity:1.0;stroke-width:0.264583"
         d="m 115.37388,129.29236 c -0.81754,8.28686 -1.63489,16.5718 -0.81254,22.70266 0.82234,6.13086 3.2844,10.10407 6.15428,15.94579 2.86989,5.84173 6.14744,13.5515 1.65216,18.94195 -4.49528,5.39045 -16.76259,8.46157 -27.157148,10.09888 -10.394555,1.63732 -18.915342,1.8406 -25.055947,1.96599 -6.140604,0.1254 -9.903078,0.17296 -11.814501,-1.10442 -1.911423,-1.27739 -1.971906,-3.87633 -0.824357,-5.45562 1.147549,-1.57929 3.500496,-2.13104 14.683817,-2.462 11.183321,-0.33096 31.252366,-0.44208 39.342086,-4.20999 8.08972,-3.76791 4.2264,-11.19284 0.92418,-16.72725 -3.30221,-5.53442 -6.04183,-9.17615 -8.78264,-12.81948"
         id="path616"
         sodipodi:nodetypes="cccccccccccc"
         inkscape:label="flag"
         inkscape:original-d="m 115.37388,129.29236 c -0.81782,8.28683 -1.63517,16.57177 -2.45254,24.85985 2.46222,3.97374 4.92428,7.94695 7.38633,11.91989 3.27785,7.71043 6.5554,15.42021 9.83287,23.12981 -12.26798,3.07155 -24.53529,6.14267 -36.803546,9.21376 -8.52091,0.20359 -17.041697,0.40687 -25.560834,0.60981 -3.762075,0.0479 -7.524549,0.0954 -11.286838,0.14266 -0.06078,-2.60231 -0.121259,-5.20125 -0.181695,-7.80743 2.355807,-0.55216 4.708755,-1.10391 7.058856,-1.65526 20.016484,-0.11052 40.085527,-0.22163 60.128237,-0.33291 -3.86341,-7.42478 -7.72672,-14.84971 -11.59018,-22.27524 -2.74093,-3.6433 -5.48054,-7.28504 -8.22127,-10.92843"
         inkscape:path-effect="#path-effect618-65" /><path
         sodipodi:type="star"
         style="display:inline;fill:url(#linearGradient894);fill-opacity:1.0;stroke-width:0.264583"
         id="path916"
         inkscape:flatsided="true"
         sodipodi:sides="3"
         sodipodi:cx="38.259632"
         sodipodi:cy="139.47459"
         sodipodi:r1="16.187494"
         sodipodi:r2="8.0937471"
         sodipodi:arg1="0.90417795"
         sodipodi:arg2="1.9513755"
         inkscape:rounded="0"
         inkscape:randomized="0"
         d="M 48.268875,152.19662 22.23741,141.78184 44.272611,124.44532 Z"
         inkscape:transform-center-x="-10.164065"
         inkscape:transform-center-y="0.033303057"
         transform="matrix(0.99248789,0.07780273,-0.12046777,0.75608587,38.671438,86.34739)"
         inkscape:label="arrowhead" /></g></g></svg>
